<svg width="1232" height="672" viewBox="0 0 1232 672" fill="none" xmlns="http://www.w3.org/2000/svg">
<rect x="56.25" y="0.25" width="55.5" height="55.5" stroke="black" stroke-opacity="0.36" stroke-width="0.5"/>
<rect x="112.25" y="0.25" width="55.5" height="55.5" stroke="black" stroke-opacity="0.36" stroke-width="0.5"/>
<rect x="168.25" y="0.25" width="55.5" height="55.5" stroke="black" stroke-opacity="0.36" stroke-width="0.5"/>
<rect x="224.25" y="0.25" width="55.5" height="55.5" stroke="black" stroke-opacity="0.36" stroke-width="0.5"/>
<rect x="280.25" y="0.25" width="55.5" height="55.5" stroke="black" stroke-opacity="0.36" stroke-width="0.5"/>
<rect x="336.25" y="0.25" width="55.5" height="55.5" stroke="black" stroke-opacity="0.36" stroke-width="0.5"/>
<rect x="392.25" y="0.25" width="55.5" height="55.5" stroke="black" stroke-opacity="0.36" stroke-width="0.5"/>
<rect x="448.25" y="0.25" width="55.5" height="55.5" stroke="black" stroke-opacity="0.36" stroke-width="0.5"/>
<rect x="504.25" y="0.25" width="55.5" height="55.5" stroke="black" stroke-opacity="0.36" stroke-width="0.5"/>
<rect x="560.25" y="0.25" width="55.5" height="55.5" stroke="black" stroke-opacity="0.36" stroke-width="0.5"/>
<rect x="616.25" y="0.25" width="55.5" height="55.5" stroke="black" stroke-opacity="0.36" stroke-width="0.5"/>
<rect x="672.25" y="0.25" width="55.5" height="55.5" stroke="black" stroke-opacity="0.36" stroke-width="0.5"/>
<rect x="728.25" y="0.25" width="55.5" height="55.5" stroke="black" stroke-opacity="0.36" stroke-width="0.5"/>
<rect x="784.25" y="0.25" width="55.5" height="55.5" stroke="black" stroke-opacity="0.36" stroke-width="0.5"/>
<rect x="840.25" y="0.25" width="55.5" height="55.5" stroke="black" stroke-opacity="0.36" stroke-width="0.5"/>
<rect x="896.25" y="0.25" width="55.5" height="55.5" stroke="black" stroke-opacity="0.36" stroke-width="0.5"/>
<rect x="952.25" y="0.25" width="55.5" height="55.5" stroke="black" stroke-opacity="0.36" stroke-width="0.5"/>
<rect x="1008.25" y="0.25" width="55.5" height="55.5" stroke="black" stroke-opacity="0.36" stroke-width="0.5"/>
<rect x="1064.25" y="0.25" width="55.5" height="55.5" stroke="black" stroke-opacity="0.36" stroke-width="0.5"/>
<rect x="1120.25" y="0.25" width="55.5" height="55.5" stroke="black" stroke-opacity="0.36" stroke-width="0.5"/>
<rect x="1176.25" y="0.25" width="55.5" height="55.5" stroke="black" stroke-opacity="0.36" stroke-width="0.5"/>
<rect x="0.25" y="0.25" width="55.5" height="55.5" stroke="black" stroke-opacity="0.36" stroke-width="0.5"/>
<rect x="56.25" y="168.25" width="55.5" height="55.5" stroke="black" stroke-opacity="0.36" stroke-width="0.5"/>
<rect x="112.25" y="168.25" width="55.5" height="55.5" stroke="black" stroke-opacity="0.36" stroke-width="0.5"/>
<rect x="168.25" y="168.25" width="55.5" height="55.5" stroke="black" stroke-opacity="0.36" stroke-width="0.5"/>
<rect x="224.25" y="168.25" width="55.5" height="55.5" stroke="black" stroke-opacity="0.36" stroke-width="0.5"/>
<rect x="280.25" y="168.25" width="55.5" height="55.5" stroke="black" stroke-opacity="0.36" stroke-width="0.5"/>
<rect x="336.25" y="168.25" width="55.5" height="55.5" stroke="black" stroke-opacity="0.36" stroke-width="0.5"/>
<rect x="392.25" y="168.25" width="55.5" height="55.5" stroke="black" stroke-opacity="0.36" stroke-width="0.5"/>
<rect x="448.25" y="168.25" width="55.5" height="55.5" stroke="black" stroke-opacity="0.36" stroke-width="0.5"/>
<rect x="504.25" y="168.25" width="55.5" height="55.5" stroke="black" stroke-opacity="0.36" stroke-width="0.5"/>
<rect x="560.25" y="168.25" width="55.5" height="55.5" stroke="black" stroke-opacity="0.36" stroke-width="0.5"/>
<rect x="616.25" y="168.25" width="55.5" height="55.5" stroke="black" stroke-opacity="0.36" stroke-width="0.5"/>
<rect x="672.25" y="168.25" width="55.5" height="55.5" stroke="black" stroke-opacity="0.36" stroke-width="0.5"/>
<rect x="728.25" y="168.25" width="55.5" height="55.5" stroke="black" stroke-opacity="0.36" stroke-width="0.5"/>
<rect x="784.25" y="168.25" width="55.5" height="55.5" stroke="black" stroke-opacity="0.36" stroke-width="0.5"/>
<rect x="840.25" y="168.25" width="55.5" height="55.5" stroke="black" stroke-opacity="0.36" stroke-width="0.5"/>
<rect x="896.25" y="168.25" width="55.5" height="55.5" stroke="black" stroke-opacity="0.36" stroke-width="0.5"/>
<rect x="952.25" y="168.25" width="55.5" height="55.5" stroke="black" stroke-opacity="0.36" stroke-width="0.5"/>
<rect x="1008.25" y="168.25" width="55.5" height="55.5" stroke="black" stroke-opacity="0.36" stroke-width="0.5"/>
<rect x="1064.25" y="168.25" width="55.5" height="55.5" stroke="black" stroke-opacity="0.36" stroke-width="0.5"/>
<rect x="1120.25" y="168.25" width="55.5" height="55.5" stroke="black" stroke-opacity="0.36" stroke-width="0.5"/>
<rect x="1176.25" y="168.25" width="55.5" height="55.5" stroke="black" stroke-opacity="0.36" stroke-width="0.5"/>
<rect x="0.25" y="168.25" width="55.5" height="55.5" stroke="black" stroke-opacity="0.36" stroke-width="0.5"/>
<rect x="56.25" y="336.25" width="55.5" height="55.5" stroke="black" stroke-opacity="0.36" stroke-width="0.5"/>
<rect x="112.25" y="336.25" width="55.5" height="55.5" stroke="black" stroke-opacity="0.36" stroke-width="0.5"/>
<rect x="168.25" y="336.25" width="55.5" height="55.5" stroke="black" stroke-opacity="0.36" stroke-width="0.5"/>
<rect x="224.25" y="336.25" width="55.5" height="55.5" stroke="black" stroke-opacity="0.36" stroke-width="0.5"/>
<rect x="280.25" y="336.25" width="55.5" height="55.5" stroke="black" stroke-opacity="0.36" stroke-width="0.5"/>
<rect x="336.25" y="336.25" width="55.5" height="55.5" stroke="black" stroke-opacity="0.36" stroke-width="0.5"/>
<rect x="392.25" y="336.25" width="55.5" height="55.5" stroke="black" stroke-opacity="0.36" stroke-width="0.5"/>
<rect x="448.25" y="336.25" width="55.5" height="55.5" stroke="black" stroke-opacity="0.36" stroke-width="0.5"/>
<rect x="504.25" y="336.25" width="55.5" height="55.5" stroke="black" stroke-opacity="0.36" stroke-width="0.5"/>
<rect x="560.25" y="336.25" width="55.5" height="55.5" stroke="black" stroke-opacity="0.36" stroke-width="0.5"/>
<rect x="616.25" y="336.25" width="55.5" height="55.5" stroke="black" stroke-opacity="0.36" stroke-width="0.5"/>
<rect x="672.25" y="336.25" width="55.5" height="55.5" stroke="black" stroke-opacity="0.36" stroke-width="0.5"/>
<rect x="728.25" y="336.25" width="55.5" height="55.5" stroke="black" stroke-opacity="0.36" stroke-width="0.5"/>
<rect x="784.25" y="336.25" width="55.5" height="55.5" stroke="black" stroke-opacity="0.36" stroke-width="0.5"/>
<rect x="840.25" y="336.25" width="55.5" height="55.5" stroke="black" stroke-opacity="0.36" stroke-width="0.5"/>
<rect x="896.25" y="336.25" width="55.5" height="55.5" stroke="black" stroke-opacity="0.36" stroke-width="0.5"/>
<rect x="952.25" y="336.25" width="55.5" height="55.5" stroke="black" stroke-opacity="0.36" stroke-width="0.5"/>
<rect x="1008.25" y="336.25" width="55.5" height="55.5" stroke="black" stroke-opacity="0.36" stroke-width="0.5"/>
<rect x="1064.25" y="336.25" width="55.5" height="55.5" stroke="black" stroke-opacity="0.36" stroke-width="0.5"/>
<rect x="1120.25" y="336.25" width="55.5" height="55.5" stroke="black" stroke-opacity="0.36" stroke-width="0.5"/>
<rect x="1176.25" y="336.25" width="55.5" height="55.5" stroke="black" stroke-opacity="0.36" stroke-width="0.5"/>
<rect x="0.25" y="336.25" width="55.5" height="55.5" stroke="black" stroke-opacity="0.36" stroke-width="0.5"/>
<rect x="56.25" y="504.25" width="55.5" height="55.5" stroke="black" stroke-opacity="0.36" stroke-width="0.5"/>
<rect x="112.25" y="504.25" width="55.5" height="55.5" stroke="black" stroke-opacity="0.36" stroke-width="0.5"/>
<rect x="168.25" y="504.25" width="55.5" height="55.5" stroke="black" stroke-opacity="0.36" stroke-width="0.5"/>
<rect x="224.25" y="504.25" width="55.5" height="55.5" stroke="black" stroke-opacity="0.36" stroke-width="0.5"/>
<rect x="280.25" y="504.25" width="55.5" height="55.5" stroke="black" stroke-opacity="0.36" stroke-width="0.5"/>
<rect x="336.25" y="504.25" width="55.5" height="55.5" stroke="black" stroke-opacity="0.36" stroke-width="0.5"/>
<rect x="392.25" y="504.25" width="55.5" height="55.5" stroke="black" stroke-opacity="0.36" stroke-width="0.5"/>
<rect x="448.25" y="504.25" width="55.5" height="55.5" stroke="black" stroke-opacity="0.36" stroke-width="0.5"/>
<rect x="504.25" y="504.25" width="55.5" height="55.5" stroke="black" stroke-opacity="0.36" stroke-width="0.5"/>
<rect x="560.25" y="504.25" width="55.5" height="55.5" stroke="black" stroke-opacity="0.36" stroke-width="0.5"/>
<rect x="616.25" y="504.25" width="55.5" height="55.5" stroke="black" stroke-opacity="0.36" stroke-width="0.5"/>
<rect x="672.25" y="504.25" width="55.5" height="55.5" stroke="black" stroke-opacity="0.36" stroke-width="0.5"/>
<rect x="728.25" y="504.25" width="55.5" height="55.5" stroke="black" stroke-opacity="0.36" stroke-width="0.5"/>
<rect x="784.25" y="504.25" width="55.5" height="55.5" stroke="black" stroke-opacity="0.36" stroke-width="0.5"/>
<rect x="840.25" y="504.25" width="55.5" height="55.5" stroke="black" stroke-opacity="0.36" stroke-width="0.5"/>
<rect x="896.25" y="504.25" width="55.5" height="55.5" stroke="black" stroke-opacity="0.36" stroke-width="0.5"/>
<rect x="952.25" y="504.25" width="55.5" height="55.5" stroke="black" stroke-opacity="0.36" stroke-width="0.5"/>
<rect x="1008.25" y="504.25" width="55.5" height="55.5" stroke="black" stroke-opacity="0.36" stroke-width="0.5"/>
<rect x="1064.25" y="504.25" width="55.5" height="55.5" stroke="black" stroke-opacity="0.36" stroke-width="0.5"/>
<rect x="1120.25" y="504.25" width="55.5" height="55.5" stroke="black" stroke-opacity="0.36" stroke-width="0.5"/>
<rect x="1176.25" y="504.25" width="55.5" height="55.5" stroke="black" stroke-opacity="0.36" stroke-width="0.5"/>
<rect x="0.25" y="504.25" width="55.5" height="55.5" stroke="black" stroke-opacity="0.36" stroke-width="0.5"/>
<rect x="56.25" y="56.25" width="55.5" height="55.5" stroke="black" stroke-opacity="0.36" stroke-width="0.5"/>
<rect x="112.25" y="56.25" width="55.5" height="55.5" stroke="black" stroke-opacity="0.36" stroke-width="0.5"/>
<rect x="168.25" y="56.25" width="55.5" height="55.5" stroke="black" stroke-opacity="0.36" stroke-width="0.5"/>
<rect x="224.25" y="56.25" width="55.5" height="55.5" stroke="black" stroke-opacity="0.36" stroke-width="0.5"/>
<rect x="280.25" y="56.25" width="55.5" height="55.5" stroke="black" stroke-opacity="0.36" stroke-width="0.5"/>
<rect x="336.25" y="56.25" width="55.5" height="55.5" stroke="black" stroke-opacity="0.36" stroke-width="0.5"/>
<rect x="392.25" y="56.25" width="55.5" height="55.5" stroke="black" stroke-opacity="0.36" stroke-width="0.5"/>
<rect x="448.25" y="56.25" width="55.5" height="55.5" stroke="black" stroke-opacity="0.36" stroke-width="0.5"/>
<rect x="504.25" y="56.25" width="55.5" height="55.5" stroke="black" stroke-opacity="0.36" stroke-width="0.5"/>
<rect x="560.25" y="56.25" width="55.5" height="55.5" stroke="black" stroke-opacity="0.36" stroke-width="0.5"/>
<rect x="616.25" y="56.25" width="55.5" height="55.5" stroke="black" stroke-opacity="0.36" stroke-width="0.5"/>
<rect x="672.25" y="56.25" width="55.5" height="55.5" stroke="black" stroke-opacity="0.36" stroke-width="0.5"/>
<rect x="728.25" y="56.25" width="55.5" height="55.5" stroke="black" stroke-opacity="0.36" stroke-width="0.5"/>
<rect x="784.25" y="56.25" width="55.5" height="55.5" stroke="black" stroke-opacity="0.36" stroke-width="0.5"/>
<rect x="840.25" y="56.25" width="55.5" height="55.5" stroke="black" stroke-opacity="0.36" stroke-width="0.5"/>
<rect x="896.25" y="56.25" width="55.5" height="55.5" stroke="black" stroke-opacity="0.36" stroke-width="0.5"/>
<rect x="952.25" y="56.25" width="55.5" height="55.5" stroke="black" stroke-opacity="0.36" stroke-width="0.5"/>
<rect x="1008.25" y="56.25" width="55.5" height="55.5" stroke="black" stroke-opacity="0.36" stroke-width="0.5"/>
<rect x="1064.25" y="56.25" width="55.5" height="55.5" stroke="black" stroke-opacity="0.36" stroke-width="0.5"/>
<rect x="1120.25" y="56.25" width="55.5" height="55.5" stroke="black" stroke-opacity="0.36" stroke-width="0.5"/>
<rect x="1176.25" y="56.25" width="55.5" height="55.5" stroke="black" stroke-opacity="0.36" stroke-width="0.5"/>
<rect x="0.25" y="56.25" width="55.5" height="55.5" stroke="black" stroke-opacity="0.36" stroke-width="0.5"/>
<rect x="56.25" y="224.25" width="55.5" height="55.5" stroke="black" stroke-opacity="0.36" stroke-width="0.5"/>
<rect x="112.25" y="224.25" width="55.5" height="55.5" stroke="black" stroke-opacity="0.36" stroke-width="0.5"/>
<rect x="168.25" y="224.25" width="55.5" height="55.5" stroke="black" stroke-opacity="0.36" stroke-width="0.5"/>
<rect x="224.25" y="224.25" width="55.5" height="55.5" stroke="black" stroke-opacity="0.36" stroke-width="0.5"/>
<rect x="280.25" y="224.25" width="55.5" height="55.5" stroke="black" stroke-opacity="0.36" stroke-width="0.5"/>
<rect x="336.25" y="224.25" width="55.5" height="55.5" stroke="black" stroke-opacity="0.36" stroke-width="0.5"/>
<rect x="392.25" y="224.25" width="55.5" height="55.5" stroke="black" stroke-opacity="0.36" stroke-width="0.5"/>
<rect x="448.25" y="224.25" width="55.5" height="55.5" stroke="black" stroke-opacity="0.36" stroke-width="0.5"/>
<rect x="504.25" y="224.25" width="55.5" height="55.5" stroke="black" stroke-opacity="0.36" stroke-width="0.5"/>
<rect x="560.25" y="224.25" width="55.5" height="55.5" stroke="black" stroke-opacity="0.36" stroke-width="0.5"/>
<rect x="616.25" y="224.25" width="55.5" height="55.5" stroke="black" stroke-opacity="0.36" stroke-width="0.5"/>
<rect x="672.25" y="224.25" width="55.5" height="55.5" stroke="black" stroke-opacity="0.36" stroke-width="0.5"/>
<rect x="728.25" y="224.25" width="55.5" height="55.5" stroke="black" stroke-opacity="0.36" stroke-width="0.5"/>
<rect x="784.25" y="224.25" width="55.5" height="55.5" stroke="black" stroke-opacity="0.36" stroke-width="0.5"/>
<rect x="840.25" y="224.25" width="55.5" height="55.5" stroke="black" stroke-opacity="0.36" stroke-width="0.5"/>
<rect x="896.25" y="224.25" width="55.5" height="55.5" stroke="black" stroke-opacity="0.36" stroke-width="0.5"/>
<rect x="952.25" y="224.25" width="55.5" height="55.5" stroke="black" stroke-opacity="0.36" stroke-width="0.5"/>
<rect x="1008.25" y="224.25" width="55.5" height="55.5" stroke="black" stroke-opacity="0.36" stroke-width="0.5"/>
<rect x="1064.25" y="224.25" width="55.5" height="55.5" stroke="black" stroke-opacity="0.36" stroke-width="0.5"/>
<rect x="1120.25" y="224.25" width="55.5" height="55.5" stroke="black" stroke-opacity="0.36" stroke-width="0.5"/>
<rect x="1176.25" y="224.25" width="55.5" height="55.5" stroke="black" stroke-opacity="0.36" stroke-width="0.5"/>
<rect x="0.25" y="224.25" width="55.5" height="55.5" stroke="black" stroke-opacity="0.36" stroke-width="0.5"/>
<rect x="56.25" y="392.25" width="55.5" height="55.5" stroke="black" stroke-opacity="0.36" stroke-width="0.5"/>
<rect x="112.25" y="392.25" width="55.5" height="55.5" stroke="black" stroke-opacity="0.36" stroke-width="0.5"/>
<rect x="168.25" y="392.25" width="55.5" height="55.5" stroke="black" stroke-opacity="0.36" stroke-width="0.5"/>
<rect x="224.25" y="392.25" width="55.5" height="55.5" stroke="black" stroke-opacity="0.36" stroke-width="0.5"/>
<rect x="280.25" y="392.25" width="55.5" height="55.5" stroke="black" stroke-opacity="0.36" stroke-width="0.5"/>
<rect x="336.25" y="392.25" width="55.5" height="55.5" stroke="black" stroke-opacity="0.36" stroke-width="0.5"/>
<rect x="392.25" y="392.25" width="55.5" height="55.5" stroke="black" stroke-opacity="0.36" stroke-width="0.5"/>
<rect x="448.25" y="392.25" width="55.5" height="55.5" stroke="black" stroke-opacity="0.36" stroke-width="0.5"/>
<rect x="504.25" y="392.25" width="55.5" height="55.5" stroke="black" stroke-opacity="0.36" stroke-width="0.5"/>
<rect x="560.25" y="392.25" width="55.5" height="55.5" stroke="black" stroke-opacity="0.36" stroke-width="0.5"/>
<rect x="616.25" y="392.25" width="55.5" height="55.5" stroke="black" stroke-opacity="0.36" stroke-width="0.5"/>
<rect x="672.25" y="392.25" width="55.5" height="55.5" stroke="black" stroke-opacity="0.36" stroke-width="0.5"/>
<rect x="728.25" y="392.25" width="55.5" height="55.5" stroke="black" stroke-opacity="0.36" stroke-width="0.5"/>
<rect x="784.25" y="392.25" width="55.5" height="55.5" stroke="black" stroke-opacity="0.36" stroke-width="0.5"/>
<rect x="840.25" y="392.25" width="55.5" height="55.5" stroke="black" stroke-opacity="0.36" stroke-width="0.5"/>
<rect x="896.25" y="392.25" width="55.5" height="55.5" stroke="black" stroke-opacity="0.36" stroke-width="0.5"/>
<rect x="952.25" y="392.25" width="55.5" height="55.5" stroke="black" stroke-opacity="0.36" stroke-width="0.5"/>
<rect x="1008.25" y="392.25" width="55.5" height="55.5" stroke="black" stroke-opacity="0.36" stroke-width="0.5"/>
<rect x="1064.25" y="392.25" width="55.5" height="55.5" stroke="black" stroke-opacity="0.36" stroke-width="0.5"/>
<rect x="1120.25" y="392.25" width="55.5" height="55.5" stroke="black" stroke-opacity="0.36" stroke-width="0.5"/>
<rect x="1176.25" y="392.25" width="55.5" height="55.5" stroke="black" stroke-opacity="0.36" stroke-width="0.5"/>
<rect x="0.25" y="392.25" width="55.5" height="55.5" stroke="black" stroke-opacity="0.36" stroke-width="0.5"/>
<rect x="56.25" y="560.25" width="55.5" height="55.5" stroke="black" stroke-opacity="0.36" stroke-width="0.5"/>
<rect x="112.25" y="560.25" width="55.5" height="55.5" stroke="black" stroke-opacity="0.36" stroke-width="0.5"/>
<rect x="168.25" y="560.25" width="55.5" height="55.5" stroke="black" stroke-opacity="0.36" stroke-width="0.5"/>
<rect x="224.25" y="560.25" width="55.5" height="55.5" stroke="black" stroke-opacity="0.36" stroke-width="0.5"/>
<rect x="280.25" y="560.25" width="55.5" height="55.5" stroke="black" stroke-opacity="0.36" stroke-width="0.5"/>
<rect x="336.25" y="560.25" width="55.5" height="55.5" stroke="black" stroke-opacity="0.36" stroke-width="0.5"/>
<rect x="392.25" y="560.25" width="55.5" height="55.5" stroke="black" stroke-opacity="0.36" stroke-width="0.5"/>
<rect x="448.25" y="560.25" width="55.5" height="55.5" stroke="black" stroke-opacity="0.36" stroke-width="0.5"/>
<rect x="504.25" y="560.25" width="55.5" height="55.5" stroke="black" stroke-opacity="0.36" stroke-width="0.5"/>
<rect x="560.25" y="560.25" width="55.5" height="55.5" stroke="black" stroke-opacity="0.36" stroke-width="0.5"/>
<rect x="616.25" y="560.25" width="55.5" height="55.5" stroke="black" stroke-opacity="0.36" stroke-width="0.5"/>
<rect x="672.25" y="560.25" width="55.5" height="55.5" stroke="black" stroke-opacity="0.36" stroke-width="0.5"/>
<rect x="728.25" y="560.25" width="55.5" height="55.5" stroke="black" stroke-opacity="0.36" stroke-width="0.5"/>
<rect x="784.25" y="560.25" width="55.5" height="55.5" stroke="black" stroke-opacity="0.36" stroke-width="0.5"/>
<rect x="840.25" y="560.25" width="55.5" height="55.5" stroke="black" stroke-opacity="0.36" stroke-width="0.5"/>
<rect x="896.25" y="560.25" width="55.5" height="55.5" stroke="black" stroke-opacity="0.36" stroke-width="0.5"/>
<rect x="952.25" y="560.25" width="55.5" height="55.5" stroke="black" stroke-opacity="0.36" stroke-width="0.5"/>
<rect x="1008.25" y="560.25" width="55.5" height="55.5" stroke="black" stroke-opacity="0.36" stroke-width="0.5"/>
<rect x="1064.25" y="560.25" width="55.5" height="55.5" stroke="black" stroke-opacity="0.36" stroke-width="0.5"/>
<rect x="1120.25" y="560.25" width="55.5" height="55.5" stroke="black" stroke-opacity="0.36" stroke-width="0.5"/>
<rect x="1176.25" y="560.25" width="55.5" height="55.5" stroke="black" stroke-opacity="0.36" stroke-width="0.5"/>
<rect x="0.25" y="560.25" width="55.5" height="55.5" stroke="black" stroke-opacity="0.36" stroke-width="0.5"/>
<rect x="56.25" y="112.25" width="55.5" height="55.5" stroke="black" stroke-opacity="0.36" stroke-width="0.5"/>
<rect x="112.25" y="112.25" width="55.5" height="55.5" stroke="black" stroke-opacity="0.36" stroke-width="0.5"/>
<rect x="168.25" y="112.25" width="55.5" height="55.5" stroke="black" stroke-opacity="0.36" stroke-width="0.5"/>
<rect x="224.25" y="112.25" width="55.5" height="55.5" stroke="black" stroke-opacity="0.36" stroke-width="0.5"/>
<rect x="280.25" y="112.25" width="55.5" height="55.5" stroke="black" stroke-opacity="0.36" stroke-width="0.5"/>
<rect x="336.25" y="112.25" width="55.5" height="55.5" stroke="black" stroke-opacity="0.36" stroke-width="0.5"/>
<rect x="392.25" y="112.25" width="55.5" height="55.5" stroke="black" stroke-opacity="0.36" stroke-width="0.5"/>
<rect x="448.25" y="112.25" width="55.5" height="55.5" stroke="black" stroke-opacity="0.36" stroke-width="0.5"/>
<rect x="504.25" y="112.25" width="55.5" height="55.5" stroke="black" stroke-opacity="0.36" stroke-width="0.5"/>
<rect x="560.25" y="112.25" width="55.5" height="55.5" stroke="black" stroke-opacity="0.36" stroke-width="0.5"/>
<rect x="616.25" y="112.25" width="55.5" height="55.5" stroke="black" stroke-opacity="0.36" stroke-width="0.5"/>
<rect x="672.25" y="112.25" width="55.5" height="55.5" stroke="black" stroke-opacity="0.36" stroke-width="0.5"/>
<rect x="728.25" y="112.25" width="55.5" height="55.5" stroke="black" stroke-opacity="0.36" stroke-width="0.5"/>
<rect x="784.25" y="112.25" width="55.5" height="55.5" stroke="black" stroke-opacity="0.36" stroke-width="0.5"/>
<rect x="840.25" y="112.25" width="55.5" height="55.5" stroke="black" stroke-opacity="0.36" stroke-width="0.5"/>
<rect x="896.25" y="112.25" width="55.5" height="55.5" stroke="black" stroke-opacity="0.36" stroke-width="0.5"/>
<rect x="952.25" y="112.25" width="55.5" height="55.5" stroke="black" stroke-opacity="0.36" stroke-width="0.5"/>
<rect x="1008.25" y="112.25" width="55.5" height="55.5" stroke="black" stroke-opacity="0.36" stroke-width="0.5"/>
<rect x="1064.25" y="112.25" width="55.5" height="55.5" stroke="black" stroke-opacity="0.36" stroke-width="0.5"/>
<rect x="1120.25" y="112.25" width="55.5" height="55.5" stroke="black" stroke-opacity="0.36" stroke-width="0.5"/>
<rect x="1176.25" y="112.25" width="55.5" height="55.5" stroke="black" stroke-opacity="0.36" stroke-width="0.5"/>
<rect x="0.25" y="112.25" width="55.5" height="55.5" stroke="black" stroke-opacity="0.36" stroke-width="0.5"/>
<rect x="56.25" y="280.25" width="55.5" height="55.5" stroke="black" stroke-opacity="0.36" stroke-width="0.5"/>
<rect x="112.25" y="280.25" width="55.5" height="55.5" stroke="black" stroke-opacity="0.36" stroke-width="0.5"/>
<rect x="168.25" y="280.25" width="55.5" height="55.5" stroke="black" stroke-opacity="0.36" stroke-width="0.5"/>
<rect x="224.25" y="280.25" width="55.5" height="55.5" stroke="black" stroke-opacity="0.36" stroke-width="0.5"/>
<rect x="280.25" y="280.25" width="55.5" height="55.5" stroke="black" stroke-opacity="0.36" stroke-width="0.5"/>
<rect x="336.25" y="280.25" width="55.5" height="55.5" stroke="black" stroke-opacity="0.36" stroke-width="0.5"/>
<rect x="392.25" y="280.25" width="55.5" height="55.5" stroke="black" stroke-opacity="0.36" stroke-width="0.5"/>
<rect x="448.25" y="280.25" width="55.5" height="55.5" stroke="black" stroke-opacity="0.36" stroke-width="0.5"/>
<rect x="504.25" y="280.25" width="55.5" height="55.5" stroke="black" stroke-opacity="0.36" stroke-width="0.5"/>
<rect x="560.25" y="280.25" width="55.5" height="55.5" stroke="black" stroke-opacity="0.36" stroke-width="0.5"/>
<rect x="616.25" y="280.25" width="55.5" height="55.5" stroke="black" stroke-opacity="0.36" stroke-width="0.5"/>
<rect x="672.25" y="280.25" width="55.5" height="55.5" stroke="black" stroke-opacity="0.36" stroke-width="0.5"/>
<rect x="728.25" y="280.25" width="55.5" height="55.5" stroke="black" stroke-opacity="0.36" stroke-width="0.5"/>
<rect x="784.25" y="280.25" width="55.5" height="55.5" stroke="black" stroke-opacity="0.36" stroke-width="0.5"/>
<rect x="840.25" y="280.25" width="55.5" height="55.5" stroke="black" stroke-opacity="0.36" stroke-width="0.5"/>
<rect x="896.25" y="280.25" width="55.5" height="55.5" stroke="black" stroke-opacity="0.36" stroke-width="0.5"/>
<rect x="952.25" y="280.25" width="55.5" height="55.5" stroke="black" stroke-opacity="0.36" stroke-width="0.5"/>
<rect x="1008.25" y="280.25" width="55.5" height="55.5" stroke="black" stroke-opacity="0.36" stroke-width="0.5"/>
<rect x="1064.25" y="280.25" width="55.5" height="55.5" stroke="black" stroke-opacity="0.36" stroke-width="0.5"/>
<rect x="1120.25" y="280.25" width="55.5" height="55.5" stroke="black" stroke-opacity="0.36" stroke-width="0.5"/>
<rect x="1176.25" y="280.25" width="55.5" height="55.5" stroke="black" stroke-opacity="0.36" stroke-width="0.5"/>
<rect x="0.25" y="280.25" width="55.5" height="55.5" stroke="black" stroke-opacity="0.36" stroke-width="0.5"/>
<rect x="56.25" y="448.25" width="55.5" height="55.5" stroke="black" stroke-opacity="0.36" stroke-width="0.5"/>
<rect x="112.25" y="448.25" width="55.5" height="55.5" stroke="black" stroke-opacity="0.36" stroke-width="0.5"/>
<rect x="168.25" y="448.25" width="55.5" height="55.5" stroke="black" stroke-opacity="0.36" stroke-width="0.5"/>
<rect x="224.25" y="448.25" width="55.5" height="55.5" stroke="black" stroke-opacity="0.36" stroke-width="0.5"/>
<rect x="280.25" y="448.25" width="55.5" height="55.5" stroke="black" stroke-opacity="0.36" stroke-width="0.5"/>
<rect x="336.25" y="448.25" width="55.5" height="55.5" stroke="black" stroke-opacity="0.36" stroke-width="0.5"/>
<rect x="392.25" y="448.25" width="55.5" height="55.5" stroke="black" stroke-opacity="0.36" stroke-width="0.5"/>
<rect x="448.25" y="448.25" width="55.5" height="55.5" stroke="black" stroke-opacity="0.36" stroke-width="0.5"/>
<rect x="504.25" y="448.25" width="55.5" height="55.5" stroke="black" stroke-opacity="0.36" stroke-width="0.5"/>
<rect x="560.25" y="448.25" width="55.5" height="55.5" stroke="black" stroke-opacity="0.36" stroke-width="0.5"/>
<rect x="616.25" y="448.25" width="55.5" height="55.5" stroke="black" stroke-opacity="0.36" stroke-width="0.5"/>
<rect x="672.25" y="448.25" width="55.5" height="55.5" stroke="black" stroke-opacity="0.36" stroke-width="0.5"/>
<rect x="728.25" y="448.25" width="55.5" height="55.5" stroke="black" stroke-opacity="0.36" stroke-width="0.5"/>
<rect x="784.25" y="448.25" width="55.5" height="55.5" stroke="black" stroke-opacity="0.36" stroke-width="0.5"/>
<rect x="840.25" y="448.25" width="55.5" height="55.5" stroke="black" stroke-opacity="0.36" stroke-width="0.5"/>
<rect x="896.25" y="448.25" width="55.5" height="55.5" stroke="black" stroke-opacity="0.36" stroke-width="0.5"/>
<rect x="952.25" y="448.25" width="55.5" height="55.5" stroke="black" stroke-opacity="0.36" stroke-width="0.5"/>
<rect x="1008.25" y="448.25" width="55.5" height="55.5" stroke="black" stroke-opacity="0.36" stroke-width="0.5"/>
<rect x="1064.25" y="448.25" width="55.5" height="55.5" stroke="black" stroke-opacity="0.36" stroke-width="0.5"/>
<rect x="1120.25" y="448.25" width="55.5" height="55.5" stroke="black" stroke-opacity="0.36" stroke-width="0.5"/>
<rect x="1176.25" y="448.25" width="55.5" height="55.5" stroke="black" stroke-opacity="0.36" stroke-width="0.5"/>
<rect x="0.25" y="448.25" width="55.5" height="55.5" stroke="black" stroke-opacity="0.36" stroke-width="0.5"/>
<rect x="56.25" y="616.25" width="55.5" height="55.5" stroke="black" stroke-opacity="0.36" stroke-width="0.5"/>
<rect x="112.25" y="616.25" width="55.5" height="55.5" stroke="black" stroke-opacity="0.36" stroke-width="0.5"/>
<rect x="168.25" y="616.25" width="55.5" height="55.5" stroke="black" stroke-opacity="0.36" stroke-width="0.5"/>
<rect x="224.25" y="616.25" width="55.5" height="55.5" stroke="black" stroke-opacity="0.36" stroke-width="0.5"/>
<rect x="280.25" y="616.25" width="55.5" height="55.5" stroke="black" stroke-opacity="0.36" stroke-width="0.5"/>
<rect x="336.25" y="616.25" width="55.5" height="55.5" stroke="black" stroke-opacity="0.36" stroke-width="0.5"/>
<rect x="392.25" y="616.25" width="55.5" height="55.5" stroke="black" stroke-opacity="0.36" stroke-width="0.5"/>
<rect x="448.25" y="616.25" width="55.5" height="55.5" stroke="black" stroke-opacity="0.36" stroke-width="0.5"/>
<rect x="504.25" y="616.25" width="55.5" height="55.5" stroke="black" stroke-opacity="0.36" stroke-width="0.5"/>
<rect x="560.25" y="616.25" width="55.5" height="55.5" stroke="black" stroke-opacity="0.36" stroke-width="0.5"/>
<rect x="616.25" y="616.25" width="55.5" height="55.5" stroke="black" stroke-opacity="0.36" stroke-width="0.5"/>
<rect x="672.25" y="616.25" width="55.5" height="55.5" stroke="black" stroke-opacity="0.36" stroke-width="0.5"/>
<rect x="728.25" y="616.25" width="55.5" height="55.5" stroke="black" stroke-opacity="0.36" stroke-width="0.5"/>
<rect x="784.25" y="616.25" width="55.5" height="55.5" stroke="black" stroke-opacity="0.36" stroke-width="0.5"/>
<rect x="840.25" y="616.25" width="55.5" height="55.5" stroke="black" stroke-opacity="0.36" stroke-width="0.5"/>
<rect x="896.25" y="616.25" width="55.5" height="55.5" stroke="black" stroke-opacity="0.36" stroke-width="0.5"/>
<rect x="952.25" y="616.25" width="55.5" height="55.5" stroke="black" stroke-opacity="0.36" stroke-width="0.5"/>
<rect x="1008.25" y="616.25" width="55.5" height="55.5" stroke="black" stroke-opacity="0.36" stroke-width="0.5"/>
<rect x="1064.25" y="616.25" width="55.5" height="55.5" stroke="black" stroke-opacity="0.36" stroke-width="0.5"/>
<rect x="1120.25" y="616.25" width="55.5" height="55.5" stroke="black" stroke-opacity="0.36" stroke-width="0.5"/>
<rect x="1176.25" y="616.25" width="55.5" height="55.5" stroke="black" stroke-opacity="0.36" stroke-width="0.5"/>
<rect x="0.25" y="616.25" width="55.5" height="55.5" stroke="black" stroke-opacity="0.36" stroke-width="0.5"/>
</svg>
