<svg width="430" height="267" viewBox="0 0 430 267" fill="none" xmlns="http://www.w3.org/2000/svg">
<path d="M427.5 299.5C427.5 365.794 374.203 419.5 308.5 419.5C242.797 419.5 189.5 365.794 189.5 299.5C189.5 233.206 242.797 179.5 308.5 179.5C374.203 179.5 427.5 233.206 427.5 299.5Z" fill="#FFDEE9" stroke="#F2A8C9" stroke-width="5"/>
<path d="M278.5 220.5C278.5 286.794 225.203 340.5 159.5 340.5C93.7974 340.5 40.5 286.794 40.5 220.5C40.5 154.206 93.7974 100.5 159.5 100.5C225.203 100.5 278.5 154.206 278.5 220.5Z" fill="#FFDEE9" stroke="#F2A8C9" stroke-width="5"/>
<path d="M119.5 122.5C119.5 188.794 66.2026 242.5 0.5 242.5C-65.2026 242.5 -118.5 188.794 -118.5 122.5C-118.5 56.2065 -65.2026 2.5 0.5 2.5C66.2026 2.5 119.5 56.2065 119.5 122.5Z" fill="#FFDEE9" stroke="#F2A8C9" stroke-width="5"/>
<ellipse cx="283.5" cy="308.5" rx="121.5" ry="122.5" fill="#FFDEE9"/>
<ellipse cx="131.5" cy="230.5" rx="121.5" ry="122.5" fill="#FFDEE9"/>
<ellipse cx="265.5" cy="334.5" rx="121.5" ry="122.5" fill="#FFA3C2"/>
<ellipse cx="150" cy="245" rx="97" ry="98" fill="#FFA3C2"/>
<ellipse cx="-18" cy="161" rx="111" ry="112" fill="#FFA3C2"/>
<ellipse cx="-12.5" cy="335" rx="156.5" ry="158" fill="#FFA3C2"/>
</svg>
