<svg width="38" height="70" viewBox="0 0 38 70" fill="none" xmlns="http://www.w3.org/2000/svg">
<path d="M16.0333 65.1935L30.3301 56.8316C30.651 56.6439 30.9441 56.4123 31.201 56.1435V56.1435C33.6479 53.5832 31.799 49.3411 28.2578 49.3907L18.2514 49.5308C15.7634 49.5656 14.2981 46.7508 15.7538 44.7328V44.7328C15.972 44.4303 16.2442 44.1707 16.5567 43.9672L25.7546 37.9757L30.1362 35.3984C31.5845 34.5465 31.5254 32.4325 30.0318 31.6628V31.6628C29.8456 31.5669 29.6464 31.4989 29.4405 31.461L13.7741 28.579C13.6284 28.5522 13.4786 28.5583 13.3356 28.597V28.597C12.2545 28.8891 11.5924 27.4467 12.5188 26.8174L28.4111 16.0212C29.4851 15.2916 29.213 13.639 27.9618 13.2922V13.2922L10.3692 8.3096L2.00001 5.08025" stroke="#9288FF" stroke-width="10"/>
</svg>
