<svg width="77" height="63" viewBox="0 0 77 63" fill="none" xmlns="http://www.w3.org/2000/svg">
<path d="M11.1688 60.7165L5.76755 41.1649C5.6506 40.7416 5.59271 40.3041 5.59552 39.8649V39.8649C5.62274 35.6049 10.7978 33.5167 13.774 36.5648L22.4883 45.4898C24.5782 47.6302 28.2151 46.4465 28.6449 43.4861V43.4861C28.7084 43.0486 28.691 42.6031 28.5936 42.1719L25.6332 29.0656L23.9922 23.0686C23.4566 21.111 25.3137 19.3437 27.2423 19.9757V19.9757C27.4761 20.0523 27.6975 20.1623 27.8997 20.3024L43.9776 31.4404C44.121 31.5397 44.241 31.6691 44.3291 31.8197V31.8197C45.0134 32.9888 46.8078 32.3004 46.5346 30.9736L41.8129 8.03947C41.4968 6.50423 43.1391 5.31348 44.5 6.09116V6.09116L64 17.0912L74 21.5912" stroke="#FF88B0" stroke-width="10"/>
</svg>
