<svg width="45" height="46" viewBox="0 0 45 46" fill="none" xmlns="http://www.w3.org/2000/svg">
<path d="M3.96908 8.97871C3.01742 7.2911 4.78126 5.37164 6.54313 6.17757L18.1238 11.4749C18.9117 11.8353 19.8421 11.6474 20.4284 11.0094L29.0451 1.63249C30.356 0.205901 32.7266 1.29027 32.5046 3.21495L31.0451 15.8658C30.9458 16.7265 31.4121 17.5533 32.2 17.9138L43.7807 23.2111C45.5425 24.017 45.2438 26.6067 43.3447 26.9902L30.862 29.5116C30.0127 29.6831 29.3705 30.382 29.2712 31.2428L27.8118 43.8936C27.5897 45.8183 25.0345 46.3344 24.0828 44.6468L17.8276 33.5542C17.402 32.7995 16.5388 32.4047 15.6895 32.5762L3.20684 35.0975C1.30775 35.4811 0.0272896 33.2104 1.33822 31.7838L9.9549 22.4069C10.5412 21.7689 10.6499 20.826 10.2244 20.0713L3.96908 8.97871Z" fill="#FF88B0"/>
</svg>
